<svg width="990" height="442" viewBox="0 0 990 442" fill="none" xmlns="http://www.w3.org/2000/svg">
<path d="M282.97 27.2228C293.209 14.535 319.238 -8.08434 341.448 2.94059C363.657 13.9658 392.837 29.8475 404.651 36.4103C402.879 25.2536 412.804 2.94059 466.674 2.94059C520.544 2.94061 572.209 19.1288 591.308 27.2228C624.387 15.6287 700.703 -5.45961 741.342 2.94059C781.981 11.3407 804.742 28.7537 811.043 36.4103C835.458 26.1288 896.574 11.7347 945.719 36.4103C994.864 61.086 977.222 135.069 962.258 168.977C973.088 184.508 993.683 225.416 989.43 264.792C985.177 304.168 969.544 317.95 962.258 319.919C970.528 342.67 974.662 391.846 925.046 406.546C875.428 421.246 852.391 412.671 847.075 406.546C811.831 418.796 737.207 432.01 720.668 386.859C693.494 431.485 412.33 466.923 328.453 406.546C307.779 455.766 212.088 451.829 183.735 406.546C146.916 422.734 67.4887 441.46 44.3337 386.859C21.1789 332.257 43.7432 307.231 57.9196 301.543C35.2766 280.105 -7.76485 223.578 1.21355 168.977C10.192 114.376 46.3019 91.1001 63.235 86.2873C71.8985 63.0991 103.756 13.9659 161.88 2.94059C220.003 -8.0847 266.825 14.5349 282.97 27.2228Z" fill="#FFF7CD"/>
</svg>
