<svg width="412" height="412" viewBox="0 0 412 412" fill="none" xmlns="http://www.w3.org/2000/svg">
<path d="M157.19 70.2532C157.537 62.7004 167.201 59.8006 171.65 65.9141L201.593 107.062C204.699 111.33 211.015 111.473 214.31 107.35L246.085 67.5989C250.806 61.693 260.328 65.027 260.334 72.5878L260.372 123.477C260.376 128.756 265.402 132.584 270.492 131.186L319.563 117.703C326.854 115.7 332.598 123.994 328.158 130.114L298.277 171.308C295.178 175.58 296.993 181.631 301.933 183.492L349.558 201.427C356.633 204.092 356.405 214.178 349.216 216.52L300.829 232.283C295.81 233.918 293.722 239.88 296.625 244.289L324.612 286.792C328.77 293.107 322.656 301.133 315.464 298.802L267.053 283.113C262.031 281.485 256.838 285.082 256.595 290.355L254.254 341.191C253.906 348.743 244.243 351.643 239.794 345.53L209.851 304.382C206.745 300.114 200.429 299.971 197.133 304.094L165.359 343.845C160.638 349.751 151.116 346.417 151.11 338.856L151.071 287.966C151.067 282.688 146.042 278.86 140.952 280.258L91.8808 293.741C84.5902 295.744 78.8461 287.45 83.2856 281.33L113.167 240.136C116.266 235.863 114.45 229.813 109.51 227.952L61.8861 210.017C54.8105 207.352 55.0388 197.265 62.2278 194.924L110.615 179.161C115.634 177.526 117.722 171.564 114.818 167.155L86.8319 124.652C82.6738 118.337 88.7873 110.311 95.9798 112.642L144.391 128.331C149.412 129.959 154.606 126.362 154.849 121.089L157.19 70.2532Z" fill="#EA4669"/>
<path d="M271.535 191.646L279.148 189.392L279.892 191.904L274.906 193.38L275.894 196.717L280.669 195.303L281.413 197.815L276.638 199.229L277.615 202.528L282.601 201.051L283.345 203.564L275.732 205.818L271.535 191.646Z" fill="#FFFEF4"/>
<path d="M257.377 195.839L259.985 195.066L262.892 204.885L266.141 193.244L268.806 192.454L273.003 206.626L270.395 207.398L267.487 197.58L264.239 209.221L261.573 210.01L257.377 195.839Z" fill="#FFFEF4"/>
<path d="M244.342 199.698L246.969 198.921L248.661 204.635L253.724 203.136L252.032 197.421L254.659 196.643L258.855 210.815L256.228 211.593L254.468 205.648L249.405 207.147L251.166 213.092L248.538 213.87L244.342 199.698Z" fill="#FFFEF4"/>
<path d="M234.285 202.676L241.898 200.422L242.642 202.934L237.656 204.41L238.644 207.747L243.419 206.333L244.163 208.845L239.388 210.259L240.365 213.558L245.351 212.081L246.095 214.594L238.482 216.848L234.285 202.676Z" fill="#FFFEF4"/>
<path d="M222.443 213.755L215.645 208.196L218.77 207.271L224.78 212.562L222.855 206.061L225.482 205.283L227.407 211.784L229.567 204.074L232.693 203.148L230.017 211.512L236.889 217.32L233.763 218.245L227.72 212.839L229.679 219.455L227.052 220.233L225.092 213.617L222.967 221.442L219.841 222.368L222.443 213.755Z" fill="#FFFEF4"/>
<path d="M202.062 219.936C201.755 218.9 201.661 217.878 201.779 216.87C201.898 215.861 202.193 214.933 202.665 214.084C203.146 213.218 203.785 212.466 204.583 211.826C205.39 211.17 206.324 210.685 207.385 210.371C208.395 210.072 209.398 209.983 210.393 210.106C211.389 210.228 212.311 210.525 213.16 210.997C214.022 211.465 214.771 212.091 215.406 212.876C216.051 213.645 216.523 214.534 216.822 215.544C217.129 216.58 217.223 217.602 217.104 218.61C216.999 219.615 216.718 220.546 216.263 221.404C215.804 222.249 215.184 222.996 214.403 223.645C213.63 224.276 212.726 224.746 211.691 225.052C210.655 225.359 209.629 225.461 208.611 225.359C207.59 225.245 206.644 224.962 205.773 224.51C204.912 224.042 204.15 223.42 203.489 222.642C202.84 221.861 202.364 220.959 202.062 219.936ZM204.702 219.133C204.903 219.811 205.212 220.407 205.629 220.924C206.059 221.436 206.549 221.847 207.1 222.157C207.659 222.45 208.271 222.637 208.935 222.719C209.595 222.788 210.257 222.724 210.922 222.527C211.599 222.326 212.184 222.021 212.674 221.612C213.178 221.198 213.571 220.72 213.856 220.177C214.152 219.63 214.331 219.035 214.391 218.392C214.459 217.732 214.392 217.056 214.187 216.366C213.983 215.676 213.672 215.072 213.255 214.556C212.834 214.027 212.35 213.614 211.803 213.317C211.253 213.008 210.647 212.818 209.987 212.75C209.327 212.681 208.652 212.749 207.962 212.953C207.31 213.146 206.734 213.456 206.234 213.882C205.744 214.291 205.352 214.776 205.059 215.336C204.766 215.895 204.585 216.505 204.516 217.165C204.443 217.812 204.505 218.468 204.702 219.133Z" fill="#FFFEF4"/>
<path d="M191.135 215.454L193.206 214.841L203.328 227.258L200.49 228.098L193.238 218.752L192.244 230.54L189.405 231.38L191.135 215.454Z" fill="#FFFEF4"/>
<path d="M172.691 233.598L174.57 233.041L175.969 219.945L178.079 219.32L186.383 229.543L188.263 228.987L189.83 234.279L187.989 234.824L186.628 232.203L175.813 235.406L176.099 238.345L174.258 238.89L172.691 233.598ZM183.66 230.349L178.177 223.525L177.293 232.235L183.66 230.349Z" fill="#FFFEF4"/>
<path d="M160.275 224.592L167.889 222.338L168.633 224.85L163.647 226.326L164.635 229.663L169.41 228.249L170.154 230.761L165.378 232.175L166.355 235.474L171.341 233.997L172.085 236.509L164.472 238.764L160.275 224.592Z" fill="#FFFEF4"/>
<path d="M149.281 227.847L152.791 226.808C153.749 226.524 154.521 226.358 155.105 226.311C155.697 226.246 156.245 226.286 156.746 226.43C157.431 226.63 158.02 226.998 158.512 227.534C159.017 228.065 159.389 228.734 159.627 229.539C159.877 230.383 159.925 231.203 159.772 232C159.627 232.779 159.299 233.433 158.788 233.96C158.626 234.119 158.448 234.269 158.254 234.41C158.059 234.551 157.829 234.689 157.563 234.823C157.293 234.945 156.976 235.073 156.613 235.209C156.259 235.327 155.839 235.459 155.353 235.603L154.509 235.852L156.105 241.241L153.478 242.019L149.281 227.847ZM154.532 233.113C154.865 233.015 155.2 232.902 155.537 232.774C155.888 232.642 156.193 232.475 156.453 232.273C156.709 232.058 156.897 231.801 157.017 231.501C157.133 231.189 157.127 230.815 156.998 230.381C156.866 229.933 156.643 229.582 156.331 229.327C156.019 229.071 155.656 228.949 155.243 228.961C155.01 228.974 154.771 229.01 154.524 229.069C154.273 229.116 153.944 229.199 153.535 229.32L152.652 229.582L153.765 233.34L154.532 233.113Z" fill="#FFFEF4"/>
<path d="M136.51 231.629L146.558 228.654L150.755 242.826L148.128 243.604L144.675 231.944L139.881 233.364L143.333 245.023L140.706 245.801L136.51 231.629Z" fill="#FFFEF4"/>
<path d="M264.225 165.652L271.838 163.398L272.582 165.91L267.596 167.386L268.584 170.723L273.359 169.309L274.103 171.821L269.328 173.235L270.304 176.534L275.29 175.057L276.034 177.569L268.421 179.824L264.225 165.652Z" fill="#FFFEF4"/>
<path d="M249.511 177.727C249.204 176.691 249.11 175.669 249.229 174.661C249.347 173.652 249.642 172.723 250.114 171.874C250.595 171.009 251.234 170.257 252.032 169.617C252.839 168.961 253.773 168.476 254.834 168.162C255.844 167.862 256.847 167.774 257.843 167.896C258.838 168.019 259.761 168.316 260.61 168.787C261.471 169.255 262.22 169.882 262.856 170.667C263.5 171.436 263.972 172.325 264.271 173.335C264.578 174.37 264.672 175.392 264.554 176.401C264.448 177.406 264.167 178.337 263.712 179.195C263.253 180.04 262.633 180.787 261.852 181.435C261.079 182.067 260.175 182.537 259.14 182.843C258.104 183.15 257.078 183.252 256.06 183.15C255.039 183.035 254.093 182.752 253.222 182.301C252.361 181.833 251.599 181.21 250.938 180.433C250.289 179.651 249.814 178.749 249.511 177.727ZM252.152 176.924C252.352 177.601 252.661 178.198 253.078 178.714C253.508 179.227 253.998 179.638 254.549 179.948C255.108 180.241 255.72 180.428 256.384 180.51C257.044 180.578 257.706 180.514 258.371 180.318C259.049 180.117 259.633 179.812 260.123 179.402C260.627 178.989 261.021 178.511 261.305 177.968C261.602 177.421 261.78 176.826 261.84 176.182C261.909 175.522 261.841 174.847 261.636 174.157C261.432 173.467 261.121 172.863 260.704 172.347C260.283 171.818 259.799 171.405 259.253 171.108C258.702 170.798 258.097 170.609 257.437 170.54C256.777 170.472 256.101 170.54 255.411 170.744C254.759 170.937 254.183 171.247 253.684 171.673C253.193 172.082 252.801 172.567 252.508 173.126C252.215 173.686 252.034 174.296 251.965 174.956C251.893 175.603 251.955 176.259 252.152 176.924Z" fill="#FFFEF4"/>
<path d="M235.047 174.292L237.674 173.514L239.366 179.229L244.429 177.73L242.737 172.015L245.364 171.237L249.561 185.409L246.933 186.187L245.173 180.242L240.11 181.741L241.871 187.686L239.243 188.464L235.047 174.292Z" fill="#FFFEF4"/>
<path d="M223.342 177.758L225.969 176.98L227.61 182.522L228.55 182.244C229.1 182.081 229.583 181.952 229.999 181.856C230.412 181.748 230.78 181.674 231.102 181.634C231.433 181.578 231.731 181.552 231.997 181.557C232.258 181.549 232.513 181.564 232.761 181.602C233.55 181.73 234.236 182.076 234.82 182.64C235.413 183.187 235.835 183.883 236.085 184.727C236.32 185.519 236.355 186.274 236.192 186.989C236.028 187.705 235.675 188.345 235.133 188.909C234.941 189.105 234.726 189.294 234.487 189.476C234.258 189.641 233.985 189.798 233.668 189.948C233.351 190.097 232.985 190.247 232.57 190.398C232.169 190.545 231.693 190.699 231.144 190.862L227.538 191.93L223.342 177.758ZM230.476 188.327C230.975 188.18 231.369 188.056 231.66 187.956C231.946 187.843 232.21 187.724 232.45 187.597C232.88 187.358 233.179 187.054 233.348 186.684C233.526 186.298 233.55 185.888 233.421 185.453C233.293 185.018 233.06 184.726 232.723 184.575C232.396 184.408 232.023 184.323 231.606 184.322C231.201 184.317 230.785 184.37 230.36 184.482C229.943 184.578 229.581 184.671 229.275 184.762L228.354 185.034L229.422 188.64L230.476 188.327Z" fill="#FFFEF4"/>
<path d="M213.846 180.57L215.917 179.957L226.039 192.374L223.201 193.214L215.949 183.869L214.955 195.656L212.116 196.497L213.846 180.57Z" fill="#FFFEF4"/>
<path d="M199.631 184.779L201.702 184.166L211.844 196.577L208.948 197.435L206.348 194.221L201.305 195.714L200.817 199.843L197.921 200.7L199.631 184.779ZM204.55 192.021L201.763 188.174L201.52 192.918L204.55 192.021Z" fill="#FFFEF4"/>
<path d="M180.793 190.357L183.401 189.585L186.308 199.404L189.557 187.762L192.222 186.973L196.419 201.145L193.811 201.917L190.903 192.098L187.655 203.74L184.989 204.529L180.793 190.357Z" fill="#FFFEF4"/>
<path d="M167.047 194.428L169.674 193.65L173.127 205.309L177.729 203.946L174.277 192.287L176.904 191.509L180.356 203.168L182.466 202.544L184.033 207.837L182.192 208.382L180.832 205.76L171.243 208.599L167.047 194.428Z" fill="#FFFEF4"/>
<path d="M156.99 197.406L164.603 195.151L165.347 197.664L160.361 199.14L161.349 202.477L166.124 201.063L166.868 203.575L162.093 204.989L163.07 208.287L168.056 206.811L168.8 209.323L161.187 211.577L156.99 197.406Z" fill="#FFFEF4"/>
<path d="M144.219 201.188L154.267 198.212L158.464 212.384L155.837 213.162L152.384 201.502L147.59 202.922L151.042 214.582L148.415 215.359L144.219 201.188Z" fill="#FFFEF4"/>
<path d="M145.199 212.015C145.111 212.75 144.921 213.446 144.629 214.103C144.345 214.743 143.977 215.332 143.525 215.869C143.068 216.394 142.529 216.852 141.909 217.245C141.301 217.633 140.632 217.936 139.904 218.151C138.868 218.458 137.84 218.554 136.818 218.439C135.797 218.324 134.849 218.035 133.975 217.571C133.113 217.103 132.352 216.48 131.69 215.703C131.038 214.908 130.56 214 130.257 212.977C129.962 211.98 129.876 210.984 129.998 209.988C130.117 208.979 130.405 208.053 130.864 207.207C131.332 206.346 131.95 205.593 132.719 204.948C133.5 204.299 134.39 203.827 135.387 203.532C136.895 203.085 138.349 203.065 139.749 203.471C141.149 203.877 142.358 204.673 143.376 205.859L140.442 206.728C139.771 206.246 139.1 205.951 138.428 205.844C137.77 205.733 137.025 205.8 136.194 206.046C135.529 206.243 134.945 206.548 134.442 206.962C133.938 207.375 133.54 207.861 133.247 208.421C132.95 208.968 132.767 209.571 132.698 210.231C132.638 210.875 132.709 211.535 132.91 212.213C133.106 212.877 133.413 213.468 133.83 213.984C134.26 214.497 134.757 214.906 135.32 215.212C135.884 215.518 136.491 215.713 137.142 215.799C137.793 215.884 138.444 215.83 139.096 215.637C139.774 215.436 140.343 215.129 140.805 214.714C141.266 214.299 141.702 213.704 142.112 212.929L145.199 212.015Z" fill="#FFFEF4"/>
</svg>
